<svg xmlns="http://www.w3.org/2000/svg" viewBox="0 0 1481.38 331.62"><defs><style>.cls-1{fill:#6ac2ce;}</style></defs><g id="Layer_2" data-name="Layer 2"><g id="Layer_1-2" data-name="Layer 1"><path class="cls-1" d="M373.14,163v5.57a165.58,165.58,0,0,1-165.78,163H124.87c-22.83,0-41.76-18.24-42-41.07a41.43,41.43,0,0,1,41.55-41.83,41.4,41.4,0,0,0,41.36-41.46v-.52a40.93,40.93,0,0,1,40.93-40.93h0c22.86,0,41.8-18.28,42-41.14a41.44,41.44,0,0,0-41.45-41.76H124.35a41.46,41.46,0,0,1,0-82.91h83A165.61,165.61,0,0,1,373.14,163Z"/><circle class="cls-1" cx="41.45" cy="124.36" r="41.45"/><path class="cls-1" d="M622.41,284.13a27.41,27.41,0,0,1-2.5,41.42,28.46,28.46,0,0,1-17.54,6.07H587.78a87.72,87.72,0,0,1-87.72-87.72V165.81h-56c-14.11,0-25.57-12.31-25.57-27.47,0-15.64,11.46-28,25.57-28h56V27.48C500.06,12.32,511.52,0,525.62,0s25.57,12.32,25.57,27.48v82.9h56c14.1,0,25.56,12.32,25.56,28a27.85,27.85,0,0,1-12.93,23.87,24,24,0,0,1-12.63,3.6h-56v58.58c0,37.42,13,51.8,51.8,51.8A27.64,27.64,0,0,1,622.41,284.13Z"/><path class="cls-1" d="M851.61,221.24c0,60.64-46.28,110.38-103.14,110.38-56.43,0-102.71-49.74-102.71-110.38,0-61.11,46.28-110.86,102.71-110.86C805.33,110.38,851.61,160.13,851.61,221.24Zm-51.57,0c0-30.79-22.92-55.43-51.57-55.43-28.21,0-51.14,24.64-51.14,55.43,0,30.32,22.93,54.95,51.14,54.95C777.12,276.19,800,251.56,800,221.24Z"/><path class="cls-1" d="M974.32,110.38a96.3,96.3,0,0,1,51.58,15.16V27.48c0-15.16,11.46-27.48,25.56-27.48,14.55,0,26,12.32,26,27.48V304.14c0,15.16-11.46,27.48-26,27.48-10.14,0-19.39-6.63-23.36-16.11a99.3,99.3,0,0,1-53.78,16.11c-56.42,0-102.71-49.74-102.71-110.38C871.61,160.13,917.9,110.38,974.32,110.38Zm0,165.81c28.66,0,51.58-24.63,51.58-54.95,0-30.79-22.92-55.43-51.58-55.43-28.21,0-51.13,24.64-51.13,55.43C923.19,251.56,946.11,276.19,974.32,276.19Z"/><path class="cls-1" d="M1281.32,304.14c0,14.69-11.46,27.48-25.57,27.48a25.12,25.12,0,0,1-22.92-15.16,107.77,107.77,0,0,1-30.42,11.37c-3.52.47-14.1,3.32-27.77,3.32-37.46,0-63.47-20.37-71.4-56.38a65.41,65.41,0,0,1,9.69-52.11c10.14-14.21,31.3-31.27,78.91-33.16,6.61,0,12.78-.48,19.39-.48A107.14,107.14,0,0,1,1228,190c-1.32-7.58-4.41-15.63-8.81-18.47a45.16,45.16,0,0,0-22-5.69c-16.75,0-33.51,8.05-42.76,16.11a24.37,24.37,0,0,1-16.31,6.16c-7.49,0-14.55-3.32-19.84-10a28.62,28.62,0,0,1-5.73-17.53c0-8,3.09-16.11,9.26-21.32a111.11,111.11,0,0,1,63-27.95,93.55,93.55,0,0,1,11.46-.47c17.64,0,34.39,4.26,48,12.32,35.27,21.31,36.59,71.06,36.59,76.27v74.37Zm-55.1-58.74a100.65,100.65,0,0,0-15-1c-5.73,0-11.9,0-22.48.48-20.28.94-31.74,6.63-34.82,10.89-.44.95-1.32,1.9-1.32,3.79A22.59,22.59,0,0,1,1153,262c1.33,5.68,3.09,13.74,21.6,13.74a79.2,79.2,0,0,0,16.75-1.9,3.2,3.2,0,0,1,1.77-.47c16.31-3.32,26.45-13.74,30.85-22.27Z"/><path class="cls-1" d="M1473.89,284.25c5.73,6.15,7.49,12.79,7.49,19.89a28.73,28.73,0,0,1-7.49,19.43,24.31,24.31,0,0,1-36.14,0l-71.86-77.22v57.79c0,15.16-11.9,27.48-26,27.48s-25.57-12.32-25.57-27.48V27.48c0-15.16,11.46-27.48,25.57-27.48s26,12.32,26,27.48V195.66l71.86-77.22a24.34,24.34,0,0,1,18.07-7.58,25.06,25.06,0,0,1,18.07,7.58,30.83,30.83,0,0,1,7.49,19.9,28.72,28.72,0,0,1-7.49,19.42l-59.07,63.48Z"/></g></g></svg>